<?xml version="1.0" encoding="UTF-8"?>
<svg id="_レイヤー_2" data-name="レイヤー 2" xmlns="http://www.w3.org/2000/svg" viewBox="0 0 44 44">
  <defs>
    <style>
      .cls-1 {
        fill: #fdfdfd;
        stroke-width: 0px;
      }
    </style>
  </defs>
  <g id="_レイヤー_1-2" data-name="レイヤー 1">
    <path class="cls-1" d="M13,0C5.83,0,0,5.83,0,13v18c0,7.17,5.83,13,13,13h18c7.17,0,13-5.83,13-13V13c0-7.17-5.83-13-13-13H13ZM13,2h18c6.09,0,11,4.91,11,11v18c0,6.09-4.91,11-11,11H13c-6.09,0-11-4.91-11-11V13C2,6.91,6.91,2,13,2ZM34,8c-1.1,0-2,.9-2,2s.9,2,2,2,2-.9,2-2-.9-2-2-2ZM22,11c-6.06,0-11,4.94-11,11s4.94,11,11,11,11-4.94,11-11-4.94-11-11-11ZM22,13c4.98,0,9,4.02,9,9s-4.02,9-9,9-9-4.02-9-9,4.02-9,9-9Z"/>
  </g>
</svg>