<?xml version="1.0" encoding="UTF-8"?>
<svg id="_レイヤー_2" data-name="レイヤー 2" xmlns="http://www.w3.org/2000/svg" viewBox="0 0 597.54 122.13">
  <defs>
    <style>
      .cls-1 {
        fill: #fff;
        stroke-width: 0px;
      }
    </style>
  </defs>
  <g id="_レイヤー_1-2" data-name="レイヤー 1">
    <g id="Logos">
      <path class="cls-1" d="M142.67.87h-42.17c-2.76,0-5.35,1.38-6.88,3.68l-10,14.94c-1.85,2.77-1.85,6.39,0,9.16l.37.56c2.53,3.8,7.66,4.83,11.45,2.3.91-.61,1.69-1.39,2.3-2.3l7.69-11.52c.57-.85,1.53-1.37,2.56-1.37h13.28c1.71,0,3.09,1.39,3.09,3.09,0,.61-.18,1.2-.52,1.71l-25.2,37.94c-.94,1.42-2.85,1.8-4.27.86-.34-.23-.63-.52-.86-.86L57.24,4.56c-1.53-2.3-4.11-3.69-6.88-3.69H8.26C3.69.88,0,4.58,0,9.15c0,1.63.49,3.22,1.39,4.58l67.2,100.71c2.54,3.8,7.67,4.82,11.47,2.28.79-.53,1.49-1.2,2.06-1.96l8.7-13c.86-1.36,1.31-2.93,1.31-4.54-.05-4.89-4.07-8.82-8.96-8.76-.01,0-.03,0-.04,0-.95,0-1.89.15-2.79.44-.87.27-1.7.69-2.44,1.22-.36.34-.74.65-1.14.94-.31.18-.65.29-1,.32-.71.05-1.41-.14-2-.54-.34-.24-.64-.54-.87-.88L27.06,21.13c-.94-1.42-.56-3.34.86-4.28.5-.33,1.09-.51,1.7-.52h13.08c1.03,0,1.99.52,2.56,1.37l40.5,60.68,3.45,5.17c2.53,3.8,7.66,4.83,11.45,2.3.91-.61,1.69-1.39,2.3-2.3l3.45-5.17s41.4-62.05,41.41-62.05l1.74-2.61c2.53-3.8,1.5-8.94-2.31-11.47-1.36-.9-2.95-1.38-4.58-1.38Z"/>
      <path class="cls-1" d="M391.41,29.84c-2.82,1.8-6.51,1.38-8.86-1-3.37-3.43-7.98-5.35-12.79-5.34-3.02-.13-5.97.95-8.19,3-1.57,1.61-2.45,3.76-2.46,6,0,3,1.37,4.92,3.83,6.56,1.63,1.09,3.27,1.64,9,4.64l13.65,6.83c6,3,11.75,6,16.12,10.65,6.28,6.28,8.46,13.38,8.46,21.3.09,9.71-3.52,19.08-10.1,26.22-9,9.83-20.21,12.84-32.23,12.84-7.37,0-16.66-1.1-24.85-7.38-4.94-3.86-8.99-8.74-11.87-14.31-1.81-3.42-.5-7.65,2.91-9.46.09-.05.18-.09.28-.14l9.36-4.44c3.36-1.59,7.38-.27,9.15,3,.92,1.8,2.11,3.43,3.55,4.85,1.64,1.64,5.46,4.37,11.75,4.37,4.09,0,8.46-1.37,10.92-3.82,2.34-2.42,3.71-5.63,3.82-9,.02-3.14-1.16-6.17-3.31-8.47-.15-.17-.32-.35-.49-.51-3.22-3.13-7-5-11.22-6.86l-9.83-4.64c-5.19-2.46-11.47-5.46-15.84-9.83-5.44-4.95-8.44-12.04-8.19-19.39-.05-9.11,3.37-17.9,9.56-24.58,5.18-5.46,13.92-10.93,28.13-10.93,8.19,0,14.74,1.64,21.3,6,3.28,2.12,6.21,4.74,8.7,7.75,2.48,2.96,2.1,7.38-.86,9.86-.21.18-.43.34-.66.49l-8.74,5.74Z"/>
      <path class="cls-1" d="M597.54,7.68v104.21c0,3.87-3.13,7-7,7h-12.47c-3.87,0-7-3.13-7-7V21.74c.01-2.14,1-4.16,2.69-5.48l15.7-12.5c2.18-1.7,5.32-1.32,7.02.86.68.87,1.06,1.95,1.06,3.06Z"/>
      <path class="cls-1" d="M508.41,29.84c-2.82,1.8-6.51,1.38-8.86-1-3.37-3.43-7.98-5.35-12.79-5.34-3.02-.13-5.97.95-8.19,3-1.57,1.61-2.45,3.76-2.46,6,0,3,1.37,4.92,3.83,6.56,1.63,1.09,3.27,1.64,9,4.64l13.65,6.83c6,3,11.75,6,16.12,10.65,6.28,6.28,8.46,13.38,8.46,21.3.09,9.71-3.52,19.08-10.1,26.22-9,9.83-20.21,12.84-32.23,12.84-7.37,0-16.66-1.1-24.85-7.38-4.94-3.86-8.99-8.74-11.87-14.31-1.81-3.42-.5-7.65,2.91-9.46.09-.05.18-.09.28-.14l9.36-4.44c3.36-1.59,7.38-.27,9.15,3,.92,1.8,2.11,3.43,3.55,4.85,1.64,1.64,5.46,4.37,11.75,4.37,4.09,0,8.46-1.37,10.92-3.82,2.34-2.42,3.71-5.63,3.82-9,.02-3.14-1.16-6.17-3.31-8.47-.15-.17-.32-.35-.49-.51-3.22-3.13-7-5-11.22-6.86l-9.83-4.64c-5.19-2.46-11.47-5.46-15.84-9.83-5.44-4.95-8.44-12.04-8.19-19.39-.05-9.11,3.37-17.9,9.56-24.58,5.18-5.46,13.92-10.93,28.13-10.93,8.19,0,14.74,1.64,21.3,6,3.28,2.12,6.21,4.74,8.7,7.75,2.48,2.96,2.1,7.38-.86,9.86-.21.18-.43.34-.66.49l-8.74,5.74Z"/>
      <path class="cls-1" d="M284.76,90.62c1.64.92,2.22,2.99,1.3,4.63-.03.05-.05.1-.08.14-4.5,7.18-10.49,13.32-17.56,18-9.29,6-21.58,8.74-33.87,8.74-15.29,0-27.85-3.83-38.78-14.75s-16.93-26.77-16.93-44,6.28-35,18.3-47.25c9.56-9.56,22.12-15.57,38.51-15.57,18.29,0,30,7.92,36.87,15,10.06,9.86,15.81,23.3,16,37.39h0s1,14-11,14l-67.63.48c-1.82,0-3.29,1.48-3.29,3.29,0,.18.02.37.05.55,1.23,7.13,4.52,14.52,9.37,19.38,6.28,6.28,13.93,7.37,20.49,7.37,7.37,0,12.83-1.64,18.3-5.73,3.53-2.78,6.57-6.13,9-9.92.98-1.47,2.92-1.92,4.45-1.05l16.5,9.3ZM256.95,45.62c1.88,0,3.41-1.53,3.4-3.42,0-.37-.06-.74-.18-1.09-1.4-4.2-3.8-8-7-11.06-3.55-3.28-9.29-6.56-18-6.56-9.28,0-15.29,3.83-18.84,7.38-2.99,2.86-5.32,6.34-6.82,10.19-.68,1.75.19,3.72,1.94,4.4.4.15.82.23,1.24.23l44.26-.07Z"/>
    </g>
  </g>
</svg>