<?xml version="1.0" encoding="UTF-8"?>
<svg id="_レイヤー_2" data-name="レイヤー 2" xmlns="http://www.w3.org/2000/svg" viewBox="0 0 69.19 45.29">
  <defs>
    <style>
      .cls-1 {
        fill: #fdfdfd;
        stroke: #2c2c2c;
        stroke-miterlimit: 10;
      }

      .cls-2 {
        fill: #005864;
        stroke-width: 0px;
      }
    </style>
  </defs>
  <g id="_レイヤー_2-2" data-name="レイヤー 2">
    <g>
      <g id="Logos">
        <path class="cls-2" d="M60.48,0h-16.29c-1.07,0-2.06.53-2.66,1.42l-3.85,5.77c-.71,1.07-.71,2.47,0,3.54l.14.21c.98,1.47,2.96,1.86,4.43.89.35-.23.65-.54.89-.89l2.97-4.45c.22-.33.59-.53.99-.53h5.13c.66,0,1.19.53,1.19,1.19,0,.23-.07.46-.2.66l-9.75,14.64c-.36.55-1.1.7-1.65.33-.13-.09-.24-.2-.33-.33L27.48,1.42C26.89.53,25.89,0,24.83,0H8.56C6.01,0,4.49,2.84,5.91,4.96l25.96,38.91c.98,1.47,2.96,1.86,4.43.88.31-.21.58-.46.8-.76l3.36-5c.33-.53.5-1.13.51-1.75,0-1.87-1.55-3.38-3.46-3.38-.37,0-.73.06-1.08.17-.34.11-.66.27-.94.47-.14.12-.29.24-.44.35-.12.07-.25.11-.38.12-.28.02-.56-.05-.79-.21-.13-.09-.24-.2-.33-.33L15.82,7.82c-.36-.55-.22-1.29.33-1.65.2-.13.43-.2.66-.2h5.05c.4,0,.77.2.99.53l15.64,23.43,1.33,2c.98,1.47,2.96,1.86,4.43.89.35-.23.65-.53.89-.89l1.33-2,15.99-23.97.67-1.01C64.56,2.84,63.03,0,60.48,0Z"/>
      </g>
      <g>
        <path class="cls-1" d="M.5,16.81h4c2.34,0,4.3.85,4.3,3.57s-2.02,3.77-4.3,3.77h-1.25v3.49H.5v-10.83ZM4.37,21.96c1.18,0,1.74-.57,1.74-1.58s-.61-1.38-1.74-1.38h-1.11v2.96h1.11Z"/>
        <path class="cls-1" d="M10.33,25.29c0-1.86,1.48-2.8,5.29-3.03-.09-.63-.66-.93-1.63-.93-.71,0-1.44.24-2.43.71l-.96-1.8c1.23-.69,2.55-1.1,3.94-1.1,2.35,0,3.85,1.17,3.85,3.85v4.65h-2.26l-.18-.88h-.08c-.82.6-1.8,1.08-2.85,1.08-1.73,0-2.7-1.17-2.7-2.55ZM15.62,25.05v-1.12c-2.13.07-2.65.55-2.65,1.15,0,.41.33.65.96.65.67,0,1.21-.31,1.69-.67Z"/>
        <path class="cls-1" d="M20.17,29.02c0-.67.44-1.21,1.26-1.62v-.06c-.46-.3-.82-.74-.82-1.43,0-.57.4-1.17.99-1.57v-.06c-.63-.4-1.11-1.17-1.11-2.13,0-2.04,1.72-3.02,3.64-3.02.48,0,.99.06,1.4.2h3.38v2.01h-1.54c.13.21.25.56.25.9,0,1.95-1.51,2.77-3.48,2.77-.31,0-.67-.04-1.08-.13-.21.17-.29.27-.29.51,0,.39.39.52,1.32.52h1.44c2.21,0,3.44.65,3.44,2.16,0,1.78-1.96,3.01-5.04,3.01-2.08,0-3.75-.58-3.75-2.07ZM26.33,28.56c0-.46-.48-.52-1.32-.52h-.89c-.64,0-.97-.04-1.26-.1-.31.21-.46.39-.46.65,0,.54.78.79,1.93.79s2-.33,2-.81ZM25.19,22.15c0-.78-.48-1.19-1.06-1.19s-1.05.41-1.05,1.19c0,.82.48,1.21,1.05,1.21s1.06-.39,1.06-1.21Z"/>
        <path class="cls-1" d="M30.26,23.47c0-2.71,2.13-4.33,4.33-4.33,2.62,0,3.96,1.79,3.96,4,0,.5-.09.98-.12,1.17h-5.42c.25,1.01,1.02,1.43,2.27,1.43.67,0,1.29-.17,2.02-.51l.9,1.65c-.98.63-2.27.96-3.31.96-2.61,0-4.63-1.59-4.63-4.36ZM33.03,22.51h3.06c-.12-.84-.58-1.29-1.4-1.29-.85,0-1.43.42-1.67,1.29Z"/>
        <path class="cls-1" d="M43.02,19.12h-3.15v-2.31h9.06v2.31h-3.15v8.52h-2.76v-8.52Z"/>
        <path class="cls-1" d="M50.13,23.49c0-2.76,2.07-4.35,4.27-4.35s4.27,1.59,4.27,4.35-2.07,4.35-4.27,4.35-4.27-1.59-4.27-4.35ZM55.85,23.49c0-1.31-.43-2.13-1.44-2.13s-1.44.82-1.44,2.13.44,2.13,1.44,2.13,1.44-.83,1.44-2.13Z"/>
        <path class="cls-1" d="M60.51,19.33h2.25l.21.78h.06c.63-.57,1.5-.98,2.35-.98,2.02,0,3.3,1.67,3.3,4.23,0,2.85-1.72,4.47-3.55,4.47-.72,0-1.37-.3-1.9-.84h-.08l.13,1.27v2.33h-2.77v-11.26ZM65.85,23.38c0-1.38-.43-2-1.29-2-.47,0-.85.18-1.28.65v3.12c.36.31.8.44,1.19.44.75,0,1.38-.59,1.38-2.21Z"/>
      </g>
    </g>
  </g>
</svg>