<?xml version="1.0" encoding="UTF-8"?>
<svg id="_レイヤー_2" data-name="レイヤー 2" xmlns="http://www.w3.org/2000/svg" viewBox="0 0 40 40">
  <defs>
    <style>
      .cls-1 {
        fill: #fdfdfd;
        stroke-width: 0px;
      }
    </style>
  </defs>
  <g id="_レイヤー_1-2" data-name="レイヤー 1">
    <path class="cls-1" d="M20,0C8.95,0,0,8.95,0,20c0,8.47,5.27,15.71,12.71,18.62-.17-1.58-.33-4.01.07-5.74.36-1.56,2.34-9.94,2.34-9.94,0,0-.6-1.2-.6-2.97,0-2.78,1.61-4.86,3.62-4.86,1.71,0,2.53,1.28,2.53,2.82,0,1.72-1.09,4.28-1.66,6.66-.47,1.99,1,3.61,2.96,3.61,3.55,0,6.29-3.75,6.29-9.16,0-4.79-3.44-8.14-8.35-8.14-5.69,0-9.03,4.27-9.03,8.68,0,1.72.66,3.56,1.49,4.56.16.2.19.37.14.57-.15.63-.49,1.99-.55,2.27-.09.37-.29.44-.67.27-2.5-1.16-4.06-4.82-4.06-7.75,0-6.31,4.58-12.1,13.22-12.1,6.94,0,12.33,4.94,12.33,11.55s-4.35,12.44-10.38,12.44c-2.03,0-3.93-1.05-4.58-2.3,0,0-1,3.82-1.25,4.76-.45,1.74-1.67,3.92-2.49,5.24,1.87.57,3.86.89,5.92.89,11.04,0,20-8.96,20-20S31.05,0,20,0Z"/>
  </g>
</svg>