<?xml version="1.0" encoding="UTF-8"?>
<svg id="_レイヤー_2" data-name="レイヤー 2" xmlns="http://www.w3.org/2000/svg" viewBox="0 0 36 36">
  <defs>
    <style>
      .cls-1 {
        fill: #2c2c2c;
        stroke-width: 0px;
      }
    </style>
  </defs>
  <g id="_レイヤー_1-2" data-name="レイヤー 1">
    <path class="cls-1" d="M6,0C2.71,0,0,2.71,0,6v24c0,3.29,2.71,6,6,6h24c3.29,0,6-2.71,6-6V6c0-3.29-2.71-6-6-6H6ZM18,8h4c0,2.01,2.94,4,4,4v4c-1.21,0-2.66-.53-4-1.43v7.43c0,3.31-2.69,6-6,6s-6-2.69-6-6,2.69-6,6-6v4c-1.1,0-2,.9-2,2s.9,2,2,2,2-.9,2-2v-14Z"/>
  </g>
</svg>